<svg width="37" height="32" viewBox="0 0 37 32" fill="none" xmlns="http://www.w3.org/2000/svg">
<g filter="url(#filter0_d_476_7195)">
<g clip-path="url(#clip0_476_7195)">
<path fill-rule="evenodd" clip-rule="evenodd" d="M6.5957 3.14844H40.7957V4.53594H6.5957V3.14844ZM6.5957 5.91969H40.7957V7.30719H6.5957V5.91969ZM6.5957 8.68719H40.7957V10.0747H6.5957V8.68719ZM6.5957 11.4547H40.7957V12.8422H6.5957V11.4547ZM6.5957 14.2297H40.7957V15.6097H6.5957V14.2297ZM6.5957 16.9934H40.7957V18.3809H6.5957V16.9934ZM6.5957 19.7609H40.7957V21.1484H6.5957V19.7609Z" fill="#BD3D44"/>
<path fill-rule="evenodd" clip-rule="evenodd" d="M6.5957 4.53613H40.7957V5.91988H6.5957V4.53613ZM6.5957 7.30363H40.7957V8.68738H6.5957V7.30363ZM6.5957 10.0711H40.7957V11.4586H6.5957V10.0711ZM6.5957 12.8424H40.7957V14.2299H6.5957V12.8424ZM6.5957 15.6099H40.7957V16.9974H6.5957V15.6099ZM6.5957 18.3774H40.7957V19.7649H6.5957V18.3774Z" fill="white"/>
<path fill-rule="evenodd" clip-rule="evenodd" d="M6.5957 3.14844H20.2757V12.8422H6.5957V3.14844Z" fill="#192F5D"/>
<path fill-rule="evenodd" clip-rule="evenodd" d="M7.73578 3.56104L7.86328 3.94729H8.26078L7.93828 4.18354L8.06203 4.56979L7.73578 4.32979L7.41328 4.56604L7.53328 4.18354L7.20703 3.94729H7.61578L7.73578 3.56104ZM10.0158 3.56104L10.1395 3.94729H10.5445L10.2183 4.18354L10.3383 4.56979L10.0158 4.32979L9.68953 4.56604L9.81328 4.18354L9.49078 3.94729H9.88828L10.0158 3.56104ZM12.2958 3.56104L12.4195 3.94729H12.8208L12.4983 4.18354L12.622 4.56979L12.2958 4.32979L11.9695 4.56604L12.0933 4.18354L11.767 3.94729H12.172L12.2958 3.56104ZM14.5758 3.56104L14.6995 3.94729H15.1045L14.7783 4.18354L14.902 4.56979L14.5758 4.32979L14.2495 4.56604L14.377 4.18354L14.047 3.94729H14.4483L14.5758 3.56104ZM16.8558 3.56104L16.9795 3.94729H17.3808L17.0583 4.18354L17.182 4.56979L16.8558 4.32979L16.5295 4.56604L16.6533 4.18354L16.3308 3.94729H16.732L16.8558 3.56104ZM19.1358 3.56104L19.2595 3.94729H19.6645L19.3345 4.18354L19.462 4.56979L19.1358 4.32979L18.8095 4.56604L18.937 4.18354L18.607 3.94729H19.012L19.1358 3.56104ZM8.87578 4.53604L8.99953 4.91854H9.40828L9.08203 5.15104L9.20203 5.53729L8.88328 5.30104L8.55703 5.53729L8.67328 5.15104L8.35828 4.91854H8.75953L8.87578 4.53604ZM11.1558 4.53604L11.2833 4.91854H11.6845L11.3545 5.15104L11.482 5.53729L11.1558 5.30104L10.8295 5.53729L10.9533 5.15104L10.627 4.91854H11.032L11.1558 4.53604ZM13.4358 4.53604L13.5595 4.91854H13.9645L13.6383 5.15104L13.762 5.53729L13.4358 5.30104L13.1095 5.53729L13.2333 5.15104L12.9108 4.91854H13.3083L13.4358 4.53604ZM15.7158 4.53604L15.8433 4.91854H16.2445L15.9145 5.15104L16.042 5.53729L15.7158 5.30104L15.3933 5.53729L15.5133 5.15104L15.187 4.91854H15.5958L15.7158 4.53604ZM17.9958 4.53604L18.1195 4.91854H18.5245L18.1983 5.15104L18.322 5.53729L17.9958 5.30104L17.6695 5.53729L17.7933 5.15104L17.4708 4.91854H17.872L17.9958 4.53604ZM7.73578 5.49604L7.86328 5.88604H8.26078L7.93828 6.12229L8.06203 6.50479L7.73578 6.26854L7.41328 6.50479L7.53328 6.12229L7.20703 5.88604H7.61578L7.73578 5.49604ZM10.0158 5.49604L10.1395 5.88604H10.5445L10.2183 6.12229L10.3383 6.50479L10.0158 6.26854L9.68953 6.50479L9.81328 6.11854L9.49078 5.88229H9.88828L10.0158 5.49604ZM12.2958 5.49604L12.4195 5.88229H12.8208L12.4983 6.11854L12.622 6.50104L12.2958 6.26479L11.9695 6.50104L12.0933 6.11479L11.767 5.87854H12.172L12.2958 5.49604ZM14.5758 5.49604L14.6995 5.88229H15.1045L14.7783 6.11854L14.902 6.50104L14.5758 6.26479L14.2495 6.50104L14.377 6.11479L14.047 5.87854H14.4483L14.5758 5.49604ZM16.8558 5.49604L16.9795 5.88229H17.3808L17.0583 6.11854L17.182 6.50104L16.8558 6.26479L16.5295 6.50104L16.6533 6.11479L16.3308 5.87854H16.732L16.8558 5.49604ZM19.1358 5.49604L19.2595 5.88229H19.6645L19.3345 6.11854L19.462 6.50104L19.1358 6.26479L18.8095 6.50104L18.937 6.11479L18.607 5.87854H19.012L19.1358 5.49604ZM8.87578 6.47104L8.99953 6.85354H9.40828L9.08203 7.08979L9.20578 7.47604L8.87953 7.23604L8.55328 7.47229L8.67703 7.08979L8.35453 6.85354H8.75578L8.87578 6.47104ZM11.1558 6.47104L11.2833 6.85354H11.6845L11.3545 7.08979L11.482 7.47604L11.1558 7.23604L10.8295 7.47229L10.9533 7.08979L10.627 6.85354H11.032L11.1558 6.47104ZM13.4358 6.47104L13.5595 6.85354H13.9645L13.6383 7.08979L13.762 7.47604L13.4358 7.23604L13.1095 7.47229L13.2333 7.08979L12.9108 6.85354H13.3083L13.4358 6.47104ZM15.7158 6.47104L15.8433 6.85354H16.2445L15.9183 7.08979L16.042 7.47604L15.7158 7.23604L15.3933 7.47229L15.5133 7.08979L15.187 6.85354H15.5958L15.7158 6.47104ZM17.9958 6.47104L18.1195 6.85354H18.5245L18.1983 7.08979L18.322 7.47604L17.9958 7.23604L17.6695 7.47229L17.7933 7.08979L17.4708 6.85354H17.872L17.9958 6.47104ZM7.73578 7.44229L7.86328 7.82479H8.26078L7.93828 8.06104L8.06203 8.44729L7.73578 8.20728L7.41328 8.44354L7.53328 8.06104L7.20703 7.82479H7.61578L7.73578 7.44229ZM10.0158 7.44229L10.1395 7.82479H10.5445L10.2183 8.06104L10.3383 8.44354L10.0158 8.20728L9.68953 8.44354L9.81328 8.06104L9.49078 7.82479H9.88828L10.0158 7.44229ZM12.2958 7.44229L12.4195 7.82479H12.8208L12.4983 8.06104L12.622 8.44729L12.2958 8.20728L11.9695 8.44354L12.0933 8.06104L11.767 7.82479H12.172L12.2958 7.44229ZM14.5758 7.44229L14.6995 7.82479H15.1045L14.7783 8.06104L14.902 8.44729L14.5758 8.20728L14.2495 8.44354L14.377 8.06104L14.047 7.82479H14.4483L14.5758 7.44229ZM16.8558 7.44229L16.9795 7.82479H17.3808L17.0583 8.06104L17.182 8.44729L16.8558 8.20728L16.5295 8.44354L16.6533 8.06104L16.3308 7.82479H16.732L16.8558 7.44229ZM19.1358 7.44229L19.2595 7.82479H19.6645L19.3345 8.06104L19.462 8.44729L19.1358 8.20728L18.8095 8.44354L18.9333 8.06104L18.6033 7.82479H19.0083L19.1358 7.44229ZM8.87578 8.40979L8.99953 8.79604H9.40828L9.08203 9.02854L9.20578 9.41479L8.87953 9.17479L8.55328 9.41479L8.67703 9.02854L8.35453 8.79229H8.75578L8.87578 8.40979ZM11.1558 8.40979L11.2833 8.79604H11.6845L11.3545 9.02854L11.482 9.41479L11.1558 9.17479L10.8295 9.41479L10.9533 9.02854L10.627 8.79229H11.032L11.1558 8.40979ZM13.4358 8.40979L13.5595 8.79604H13.9645L13.6383 9.02854L13.762 9.41479L13.4358 9.17479L13.1095 9.41479L13.2333 9.02854L12.9108 8.79229H13.3083L13.4358 8.40979ZM15.7158 8.40979L15.8433 8.79604H16.2445L15.9183 9.02854L16.042 9.41479L15.7158 9.17479L15.3933 9.41479L15.5133 9.02854L15.187 8.79229H15.5958L15.7158 8.40979ZM17.9958 8.40979L18.1195 8.79604H18.5245L18.1983 9.02854L18.322 9.41479L17.9958 9.17479L17.6695 9.41479L17.7933 9.02854L17.4708 8.79229H17.872L17.9958 8.40979ZM7.73578 9.37729L7.86328 9.76354H8.26078L7.93828 9.99979L8.06203 10.3785L7.73578 10.146L7.41328 10.3785L7.53328 9.99604L7.20703 9.75979H7.61578L7.73578 9.37729ZM10.0158 9.37729L10.1395 9.76354H10.5445L10.2183 9.99979L10.342 10.3785L10.0158 10.146L9.68953 10.3785L9.81703 9.99604L9.49078 9.75979H9.88828L10.0158 9.37729ZM12.2958 9.37729L12.4195 9.76354H12.8208L12.4983 9.99979L12.622 10.3785L12.2958 10.146L11.9695 10.3785L12.0933 9.99604L11.767 9.75979H12.172L12.2958 9.37729ZM14.5758 9.37729L14.6995 9.76354H15.1045L14.7783 9.99979L14.902 10.3785L14.5758 10.146L14.2495 10.3785L14.377 9.99604L14.047 9.75979H14.4483L14.5758 9.37729ZM16.8558 9.37729L16.9795 9.76354H17.3808L17.0583 9.99979L17.182 10.3785L16.8558 10.146L16.5295 10.3785L16.6533 9.99604L16.3308 9.75979H16.732L16.8558 9.37729ZM19.1358 9.37729L19.2595 9.76354H19.6645L19.3345 9.99979L19.462 10.3785L19.1358 10.146L18.8095 10.3785L18.937 9.99604L18.607 9.75979H19.012L19.1358 9.37729ZM8.87578 10.3485L8.99953 10.731H9.40828L9.08203 10.9673L9.20578 11.3535L8.87953 11.1135L8.55328 11.3498L8.67703 10.9673L8.35453 10.731H8.75578L8.87578 10.3485ZM11.1558 10.3485L11.2833 10.731H11.6845L11.3545 10.9673L11.482 11.3535L11.1558 11.1135L10.8295 11.3498L10.9533 10.9673L10.627 10.731H11.032L11.1558 10.3485ZM13.4358 10.3485L13.5595 10.731H13.9645L13.6383 10.9673L13.762 11.3535L13.4358 11.1135L13.1095 11.3498L13.2333 10.9673L12.9108 10.731H13.3083L13.4358 10.3485ZM15.7158 10.3485L15.8433 10.731H16.2445L15.9183 10.9673L16.042 11.3535L15.7158 11.1135L15.3933 11.3498L15.5133 10.9673L15.187 10.731H15.5958L15.7158 10.3485ZM17.9958 10.3485L18.1195 10.731H18.5245L18.1983 10.9673L18.322 11.3535L17.9958 11.1135L17.6695 11.3498L17.7933 10.9673L17.4708 10.731H17.872L17.9958 10.3485ZM7.73578 11.3198L7.86328 11.7023H8.26078L7.93828 11.9385L8.06203 12.321L7.73578 12.0848L7.41328 12.321L7.53328 11.9348L7.20703 11.6985H7.61578L7.73578 11.3198ZM10.0158 11.3198L10.1395 11.7023H10.5445L10.2183 11.9385L10.342 12.321L10.0158 12.0848L9.68953 12.321L9.81703 11.9348L9.49078 11.6985H9.88828L10.0158 11.3198ZM12.2958 11.3198L12.4195 11.7023H12.8208L12.5058 11.9385L12.6295 12.321L12.3033 12.0848L11.977 12.321L12.1008 11.9348L11.7745 11.6985H12.1795L12.2958 11.3198ZM14.5758 11.3198L14.6995 11.7023H15.1045L14.7783 11.9385L14.902 12.321L14.5758 12.0848L14.2495 12.321L14.377 11.9348L14.047 11.6985H14.4483L14.5758 11.3198ZM16.8558 11.3198L16.9795 11.7023H17.3808L17.0583 11.9385L17.182 12.321L16.8558 12.0848L16.5295 12.321L16.6533 11.9348L16.3308 11.6985H16.732L16.8558 11.3198ZM19.1358 11.3198L19.2595 11.7023H19.6645L19.3345 11.9385L19.462 12.321L19.1358 12.0848L18.8095 12.321L18.937 11.9348L18.607 11.6985H19.012L19.1358 11.3198Z" fill="white"/>
</g>
</g>
<defs>
<filter id="filter0_d_476_7195" x="0.595703" y="-1.85156" width="36" height="36" filterUnits="userSpaceOnUse" color-interpolation-filters="sRGB">
<feFlood flood-opacity="0" result="BackgroundImageFix"/>
<feColorMatrix in="SourceAlpha" type="matrix" values="0 0 0 0 0 0 0 0 0 0 0 0 0 0 0 0 0 0 127 0" result="hardAlpha"/>
<feOffset dy="4"/>
<feGaussianBlur stdDeviation="3"/>
<feComposite in2="hardAlpha" operator="out"/>
<feColorMatrix type="matrix" values="0 0 0 0 0 0 0 0 0 0 0 0 0 0 0 0 0 0 0.16 0"/>
<feBlend mode="normal" in2="BackgroundImageFix" result="effect1_dropShadow_476_7195"/>
<feBlend mode="normal" in="SourceGraphic" in2="effect1_dropShadow_476_7195" result="shape"/>
</filter>
<clipPath id="clip0_476_7195">
<rect width="24" height="18" fill="white" transform="translate(6.5957 3.14844)"/>
</clipPath>
</defs>
</svg>
